<svg id="Layer_1" data-name="Layer 1" xmlns="http://www.w3.org/2000/svg" xmlns:xlink="http://www.w3.org/1999/xlink" viewBox="0 0 606.82 502.83"><defs><linearGradient id="linear-gradient" x1="-791.14" y1="373.56" x2="-777.51" y2="46.42" gradientTransform="matrix(-1, 0, 0, 1, -607.15, 0)" gradientUnits="userSpaceOnUse"><stop offset="0" stop-color="#fff" stop-opacity="0"/><stop offset="0.95" stop-color="#fff"/></linearGradient><linearGradient id="linear-gradient-2" x1="293.03" y1="371.65" x2="225.47" y2="1827.95" gradientUnits="userSpaceOnUse"><stop offset="0" stop-color="#010101" stop-opacity="0"/><stop offset="0.95" stop-color="#010101"/></linearGradient><linearGradient id="linear-gradient-3" x1="242.97" y1="739.91" x2="369.96" y2="-27.54" gradientTransform="matrix(1, 0, 0, 1, 0, 0)" xlink:href="#linear-gradient"/><linearGradient id="linear-gradient-4" x1="284.96" y1="386.78" x2="288.97" y2="362.54" gradientTransform="matrix(1, 0, 0, 1, 0, 0)" xlink:href="#linear-gradient"/><linearGradient id="linear-gradient-5" x1="285.34" y1="398.18" x2="296.39" y2="432.17" xlink:href="#linear-gradient-2"/><linearGradient id="linear-gradient-6" x1="291.73" y1="418.95" x2="295.27" y2="446.48" xlink:href="#linear-gradient-2"/><linearGradient id="linear-gradient-7" x1="286.48" y1="371.03" x2="255" y2="447.14" xlink:href="#linear-gradient-2"/><linearGradient id="linear-gradient-8" x1="264.37" y1="329.3" x2="298.32" y2="329.3" xlink:href="#linear-gradient-2"/><linearGradient id="linear-gradient-9" x1="241.17" y1="401.97" x2="372.98" y2="360.54" xlink:href="#linear-gradient-2"/><linearGradient id="linear-gradient-10" x1="355.27" y1="420.96" x2="372.99" y2="420.96" xlink:href="#linear-gradient-2"/><linearGradient id="linear-gradient-11" x1="258.77" y1="362.13" x2="252.36" y2="300.67" xlink:href="#linear-gradient-2"/><linearGradient id="linear-gradient-12" x1="256.76" y1="349.41" x2="266.87" y2="312.3" xlink:href="#linear-gradient-2"/><linearGradient id="linear-gradient-13" x1="252.93" y1="353.19" x2="260.92" y2="323.85" xlink:href="#linear-gradient-2"/><linearGradient id="linear-gradient-14" x1="-838.19" y1="276.97" x2="-1048.38" y2="278.64" gradientTransform="matrix(-1, 0, 0, 1, -446.9, 0)" xlink:href="#linear-gradient"/></defs><title>Social Media 3</title><path d="M172.65,493.17c8.79.51,16.88,5.38,26.14,6.63a701.31,701.31,0,0,0,187.86,0c29.29-3.95,57.81-11.47,87.31-13.24,30.27-1.83,61.63,1.29,90.79-8.81,34.85-12.08,60.08-43.71,61.49-77.1,1.35-31.84-16.77-61.38-26.5-92a180.09,180.09,0,0,1,.89-111.52c12.15-36.3,36.12-70.88,33.87-108.71C631.35,35.48,566.9-7.19,509.39,5.56,479.27,12.23,454,30.92,424.22,38.71c-48.37,12.67-100.34-5-150.42,0C231.26,43.05,192.08,64,163.62,92.62S116.79,157,105.69,193.94C95.9,226.56,91.2,261.06,72.8,290.55,59.32,312.14,38.65,330.84,32.61,355,25.53,383.31,4.52,483.51,172.65,493.17Z" transform="translate(-27.83 -3.29)" fill="#8fa1d9" opacity="0.24" style="isolation:isolate"/><path d="M105.88,240.48v51.2A21.41,21.41,0,0,0,127.3,313.1h3.85v22.51l11.69-22.51h88.89a21.42,21.42,0,0,0,21.42-21.42v-51.2a21.41,21.41,0,0,0-21.42-21.42H127.3A21.41,21.41,0,0,0,105.88,240.48Z" transform="translate(-27.83 -3.29)" fill="#8fa1d9"/><path d="M105.88,240.48v51.2A21.41,21.41,0,0,0,127.3,313.1h3.85v22.51l11.69-22.51h88.89a21.42,21.42,0,0,0,21.42-21.42v-51.2a21.41,21.41,0,0,0-21.42-21.42H127.3A21.41,21.41,0,0,0,105.88,240.48Z" transform="translate(-27.83 -3.29)" fill="url(#linear-gradient)"/><rect x="124.86" y="237.65" width="109.73" height="6.13" transform="translate(331.63 478.15) rotate(-180)" fill="#8fa1d9"/><rect x="124.86" y="253.84" width="109.73" height="6.13" transform="translate(331.63 510.53) rotate(-180)" fill="#8fa1d9"/><rect x="124.86" y="270.03" width="109.73" height="6.13" transform="translate(331.63 542.9) rotate(-180)" fill="#8fa1d9"/><ellipse cx="288.92" cy="460.17" rx="166.4" ry="27.52" fill="url(#linear-gradient-2)"/><rect x="187.7" y="60.1" width="212.22" height="409.95" rx="31.11" fill="#8fa1d9"/><path d="M412.87,98V438.17H229.4V98a12.91,12.91,0,0,1,12.87-12.87h47.28A10.89,10.89,0,0,0,300.43,96h42.65A10.89,10.89,0,0,0,354,85.12h46A12.89,12.89,0,0,1,412.87,98Z" transform="translate(-27.83 -3.29)" fill="url(#linear-gradient-3)"/><rect x="209.92" y="343.04" width="164.76" height="83.71" fill="#8fa1d9" opacity="0.24" style="isolation:isolate"/><rect x="209.53" y="159.02" width="166.4" height="160.14" fill="#8fa1d9" opacity="0.51" style="isolation:isolate"/><polygon points="280.21 373.93 289.66 364.59 296 366.02 296 367.83 286.03 378.7 277.62 379.09 280.21 373.93" fill="#606161"/><polygon points="288.93 365.93 293.74 367.26 284.61 376.65 281.1 376.68 281.69 372.98 288.93 365.93" fill="url(#linear-gradient-4)"/><path d="M263.4,404.15s36.39-16.74,43.29-14.06,25.3,35.8,25.3,35.8L319,425.63l-20.7-17.86-17.6,14.75L255.12,421Z" transform="translate(-27.83 -3.29)" fill="#606161"/><path d="M263.4,404.15s36.39-16.74,43.29-14.06,25.3,35.8,25.3,35.8L319,425.63l-20.7-17.86-17.6,14.75L255.12,421Z" transform="translate(-27.83 -3.29)" fill="url(#linear-gradient-5)"/><path d="M234.41,429.12s2.46,8.41,9.06,9.32S348.55,437,348.55,437a6.29,6.29,0,0,0,3.1-4.4c.78-3.37-1.29-7-1.29-7l-82.42-9.53Z" transform="translate(-27.83 -3.29)" fill="#606161"/><path d="M234.41,429.12s2.46,8.41,9.06,9.32S348.55,437,348.55,437a6.29,6.29,0,0,0,3.1-4.4c.78-3.37-1.29-7-1.29-7l-82.42-9.53Z" transform="translate(-27.83 -3.29)" fill="url(#linear-gradient-6)"/><path d="M302.35,382.11a14.86,14.86,0,0,1,7.91,2.41,8.38,8.38,0,0,1,3.7,7.11,1.8,1.8,0,0,1-.37,1.13,1.53,1.53,0,0,1-1.09.42c-2.23.07-3.65-2.53-5.81-3.09-1.39-.36-2.85.18-4.28.09a5,5,0,0,1-4.06-2.69,4.83,4.83,0,0,1-.1-4.15C299.06,381.94,300.86,382,302.35,382.11Z" transform="translate(-27.83 -3.29)" fill="#f4a982"/><path d="M278.89,381.46a1,1,0,0,0,.24.73,1,1,0,0,0,.7.16l19.32-.38a18.84,18.84,0,0,1,.07,7.06,2.09,2.09,0,0,1-.41,1.06,2.3,2.3,0,0,1-1.47.56,126.09,126.09,0,0,0-24,5.52,4.64,4.64,0,0,1-2.5.38c-1.58-.35-2.3-2.17-2.63-3.75-1.11-5.33-.7-10.85-1.33-16.26-.31-2.63-.84-5.42.25-7.84,1-2.24,8.2-7.76,9.72-4.2,1,2.36.93,5.91,1.23,8.45Q278.62,377.19,278.89,381.46Z" transform="translate(-27.83 -3.29)" fill="#8fa1d9"/><path d="M278.89,381.46a1,1,0,0,0,.24.73,1,1,0,0,0,.7.16l19.32-.38a18.84,18.84,0,0,1,.07,7.06,2.09,2.09,0,0,1-.41,1.06,2.3,2.3,0,0,1-1.47.56,126.09,126.09,0,0,0-24,5.52,4.64,4.64,0,0,1-2.5.38c-1.58-.35-2.3-2.17-2.63-3.75-1.11-5.33-.7-10.85-1.33-16.26-.31-2.63-.84-5.42.25-7.84,1-2.24,8.2-7.76,9.72-4.2,1,2.36.93,5.91,1.23,8.45Q278.62,377.19,278.89,381.46Z" transform="translate(-27.83 -3.29)" fill="url(#linear-gradient-7)"/><path d="M302.64,382.25a13,13,0,0,1,7.48-7.11c.78,1.34-1.71,3.2-.65,4.34a1.94,1.94,0,0,0,1.55.38l6.4-.27a.79.79,0,0,1,.57.12.72.72,0,0,1,.2.45,4,4,0,0,1-1.58,3.34c-1,.85-2.12,1.47-3.06,2.34-1.53,1.41-2.5,3.49-4.38,4.4-1.42.69-3.1.58-4.58,1.11-1.82.66-3.52,2.32-5.38,1.76-.89-.26.11-5.51.56-6.11A20.24,20.24,0,0,0,302.64,382.25Z" transform="translate(-27.83 -3.29)" fill="#f4a982"/><path d="M275.89,350.53a25.22,25.22,0,0,0,3.64,2.7,2.84,2.84,0,0,0,1.68.55,2.79,2.79,0,0,0,1.7-1.07,16.63,16.63,0,0,0,2.84-4.25,1.72,1.72,0,0,1,.39-.62c.6-.53,1.57,0,2.33-.28a1.62,1.62,0,0,0,1-1.36,5.51,5.51,0,0,0-.13-1.76,15.38,15.38,0,0,1-.22-3.95c.21-2.11,1.05-4.21.62-6.28a9.31,9.31,0,0,0-3-4.57,12.42,12.42,0,0,0-3.32-2.45,11.87,11.87,0,0,0-4.62-.88,9.16,9.16,0,0,0-5.56,1.19c-1.55,1.08-2.41,2.88-3.2,4.6l-6.73,14.66A2.54,2.54,0,0,0,263,348a2.14,2.14,0,0,0,.48,1,15.06,15.06,0,0,0,5.19,4.59c1.16.62,3.21,1.47,4.48.67S275,351.55,275.89,350.53Z" transform="translate(-27.83 -3.29)" fill="#f4a982"/><path d="M296.17,331.84a8.69,8.69,0,0,0,1.74-8.34,2.83,2.83,0,0,0-.7-1.24,3.54,3.54,0,0,0-1.6-.64,40.2,40.2,0,0,1-10.93-4.24c-1.91-1.09-3.85-2.37-6-2.44a6,6,0,0,0-5.61,3.67,4,4,0,0,0-3.76-.25,6.5,6.5,0,0,0-2.87,2.6c-1.86,3-1.94,6.68-2,10.18l-.07,11.34a1.61,1.61,0,0,0,.08.62,1.09,1.09,0,0,0,1.24.53,3.09,3.09,0,0,0,1.26-.7c1.47-1.16,2.92-2.34,4.37-3.53a5.06,5.06,0,0,1,.62-6.38,1.5,1.5,0,0,1,.73-.44,1.55,1.55,0,0,1,1.27.57,5.15,5.15,0,0,1-.13,7.06,6.55,6.55,0,0,0,3.63-3.43,18.65,18.65,0,0,1,2.68-4.36c1.2-1.22,3.19-1.9,4.64-1,2,1.23,2.29,3.28,5,3.28A8.71,8.71,0,0,0,296.17,331.84Z" transform="translate(-27.83 -3.29)" fill="#606161"/><path d="M296.17,331.84a8.69,8.69,0,0,0,1.74-8.34,2.83,2.83,0,0,0-.7-1.24,3.54,3.54,0,0,0-1.6-.64,40.2,40.2,0,0,1-10.93-4.24c-1.91-1.09-3.85-2.37-6-2.44a6,6,0,0,0-5.61,3.67,4,4,0,0,0-3.76-.25,6.5,6.5,0,0,0-2.87,2.6c-1.86,3-1.94,6.68-2,10.18l-.07,11.34a1.61,1.61,0,0,0,.08.62,1.09,1.09,0,0,0,1.24.53,3.09,3.09,0,0,0,1.26-.7c1.47-1.16,2.92-2.34,4.37-3.53a5.06,5.06,0,0,1,.62-6.38,1.5,1.5,0,0,1,.73-.44,1.55,1.55,0,0,1,1.27.57,5.15,5.15,0,0,1-.13,7.06,6.55,6.55,0,0,0,3.63-3.43,18.65,18.65,0,0,1,2.68-4.36c1.2-1.22,3.19-1.9,4.64-1,2,1.23,2.29,3.28,5,3.28A8.71,8.71,0,0,0,296.17,331.84Z" transform="translate(-27.83 -3.29)" fill="url(#linear-gradient-8)"/><path d="M267.85,407.12c.34,3,.88,6.06.09,9-.91,3.34-3.46,6.09-6.35,8.24a33.39,33.39,0,0,1-19.84,6.41c-3.95,0-8.38-1-10.36-4.23-1.31-2.11-1.24-4.7-1.13-7.14l.57-12.7c.41-9.22.84-18.51,3.19-27.47s6.81-17.67,14.16-23.85a22,22,0,0,1,8.17-4.58c11.33-3.11,23.75,3.84,19.74,15.28C271.17,380.11,266.13,391.91,267.85,407.12Z" transform="translate(-27.83 -3.29)" fill="#8fa1d9"/><path d="M250.89,406.38c.17,1-.36,3.58.18,4.45,1.3,2.06,2.33,17.48,4.7,16.89s9.82-8.49,11.73-10c1.66-1.32.6-13.16,0-15.21a7.36,7.36,0,0,0-1.48-2.3c-2.35-3-2.94-7.06-3-10.89s.32-7.72-.4-11.48c-.76-4-3.24-8.5-7.52-9.39-5.65-1.16-5.72,1.78-4.58,5.65C253.56,384.4,249.15,395.79,250.89,406.38Z" transform="translate(-27.83 -3.29)" fill="url(#linear-gradient-9)"/><path d="M357.85,427.54a4,4,0,0,1,.91,2.81,8.77,8.77,0,0,1-.07,2.4,3.11,3.11,0,0,1-1.24,2,4.7,4.7,0,0,1-2.63.46l-2.37-.06a7.82,7.82,0,0,1-2.41-.3,2.65,2.65,0,0,1-1.73-1.58,3.34,3.34,0,0,1,0-1.8c.44-2,1-4.73,3.37-4.75C353.31,426.69,356.64,426.43,357.85,427.54Z" transform="translate(-27.83 -3.29)" fill="#f4a982"/><path d="M363.78,409.58a120.63,120.63,0,0,1-7,12.53,7.67,7.67,0,0,0-1.55,3.83,11,11,0,0,0,.6,2.75,11.62,11.62,0,0,1,.31,4.47,14.73,14.73,0,0,0-.27,2.56,2.68,2.68,0,0,0,1.13,2.2,3.62,3.62,0,0,0,1.82.39l7.53.32a4.19,4.19,0,0,0,1.37-.09,3.67,3.67,0,0,0,1.93-1.78c3.55-5.8,2.38-13.2,3.61-19.89.51-2.77,1.45-5.49,1.52-8.31a5.85,5.85,0,0,0-1.53-4.56c-1.24-1.1-3.55-1-4.25.49" transform="translate(-27.83 -3.29)" fill="#606161"/><path d="M363.78,409.58a120.63,120.63,0,0,1-7,12.53,7.67,7.67,0,0,0-1.55,3.83,11,11,0,0,0,.6,2.75,11.62,11.62,0,0,1,.31,4.47,14.73,14.73,0,0,0-.27,2.56,2.68,2.68,0,0,0,1.13,2.2,3.62,3.62,0,0,0,1.82.39c2.51.11,2.33-.09,4.84,0a4.48,4.48,0,0,0,1.37-.1,3.67,3.67,0,0,0,1.93-1.78c3.55-5.8,3.24-12.26,4.47-18.95.51-2.77,1.45-5.49,1.52-8.31a5.84,5.84,0,0,0-1.53-4.56c-1.24-1.11-1.72-1.64-2.42-.14" transform="translate(-27.83 -3.29)" fill="url(#linear-gradient-10)"/><path d="M251.15,368.52s-.17-11,9.66-11.91S272.2,366.1,271.86,369s1.55,19.49,1.55,19.49l26.4-1.72,1,7.59s-37.09,11.21-39.16,8.8S257,396.12,251.15,368.52Z" transform="translate(-27.83 -3.29)" fill="#8fa1d9"/><path d="M240.86,363.76s6.88.62,11.36-1.46,16.55-4.43,20.16-3.51c4.3,1.1,3.91-2,3.91-2l-16.77-5.2s-14.7,5.73-15.95,8.13A22.9,22.9,0,0,1,240.86,363.76Z" transform="translate(-27.83 -3.29)" fill="url(#linear-gradient-11)"/><path d="M263.57,344.71c-1.73-1.6-3.57-3.26-5.87-3.78s-5.15.59-5.66,2.89c-.19.83-.21,1.92-1,2.19-.5.17-1-.12-1.56-.1a2.15,2.15,0,0,0-1.74,1.39c-.33.72-.45,1.51-.78,2.22-.82,1.81-2.74,2.78-4.24,4.08s-2.66,3.6-1.46,5.18,3.36,1.18,5.13.7c4.41-1.2,8.74-2.8,13.26-3.51s9.37-.46,13.32,1.84c4.34,2.54,4.22-2.47,1.14-4.25C270.11,351.26,267,347.83,263.57,344.71Z" transform="translate(-27.83 -3.29)" fill="#8fa1d9"/><path d="M262.68,350.25a9.36,9.36,0,0,1-3.23-1.05,65.75,65.75,0,0,0-6.9-2.7.94.94,0,0,1-.36-.18.83.83,0,0,1-.22-.47c-.2-1,.08-2.88,1.26-3.05.93-.14,2.73,1.2,3.49,1.67A19.34,19.34,0,0,1,262.68,350.25Z" transform="translate(-27.83 -3.29)" fill="url(#linear-gradient-12)"/><path d="M260.07,352c-1.14-.07-1.72,1.25-7.67.08-2.42-.48-2.27-.11-4.62-.88a.94.94,0,0,1-.36-.18.83.83,0,0,1-.22-.47c-.2-.95.08-2.88,1.26-3.05.93-.14,2.73,1.2,3.49,1.67C254.32,350.67,255.69,351.87,260.07,352Z" transform="translate(-27.83 -3.29)" fill="url(#linear-gradient-13)"/><circle cx="228.81" cy="138.06" r="14.7" fill="#8fa1d9" opacity="0.24" style="isolation:isolate"/><rect x="250.4" y="130.24" width="60.89" height="7.09" fill="#8fa1d9" opacity="0.51" style="isolation:isolate"/><rect x="250.4" y="143.69" width="82.85" height="3.54" fill="#8fa1d9" opacity="0.24" style="isolation:isolate"/><path d="M422,273c0,24.25,25.24,43.89,56.36,43.89a68.47,68.47,0,0,0,15.54-1.73l24.6,12.59L508.58,310c15.71-7.74,26.11-21.37,26.11-37,0-24.26-25.24-43.89-56.37-43.89S422,248.75,422,273Z" transform="translate(-27.83 -3.29)" fill="#8fa1d9"/><path d="M420.71,272.38c0,24.26,25.24,43.89,56.36,43.89a68.47,68.47,0,0,0,15.54-1.73l24.6,12.59-9.88-17.79c15.71-7.74,26.11-21.36,26.11-37,0-24.25-25.24-43.89-56.37-43.89S420.71,248.13,420.71,272.38Z" transform="translate(-27.83 -3.29)" fill="url(#linear-gradient-14)"/><path d="M457.52,150.48s-7.58-9.94-14.68-.47,16.1,20.84,16.1,20.84,16.58-11.84,14.69-18.94S461.31,142.91,457.52,150.48Z" transform="translate(-27.83 -3.29)" fill="#fff"/><path d="M173.37,175.54s-6.33-8.31-12.26-.4,13.45,17.4,13.45,17.4,13.83-9.89,12.25-15.82A7.23,7.23,0,0,0,173.37,175.54Z" transform="translate(-27.83 -3.29)" fill="#fff"/><path d="M502,179s-10.21-13.4-19.79-.64,21.7,28.08,21.7,28.08,22.34-15.95,19.79-25.52S507.06,168.76,502,179Z" transform="translate(-27.83 -3.29)" fill="#fff"/><path d="M193,143.6s-4.55-6-8.82-.28,9.68,12.52,9.68,12.52,9.95-7.12,8.82-11.38A5.21,5.21,0,0,0,193,143.6Z" transform="translate(-27.83 -3.29)" fill="#fff"/></svg>