<svg width="997" height="829" viewBox="0 0 997 829" fill="none" xmlns="http://www.w3.org/2000/svg">
<g clip-path="url(#clip0)">
<path opacity="0.1" d="M994.59 272.45H902.65V383.9H987.87C988.09 385.05 988.3 386.2 988.55 387.34H902.65V477.2L903.08 477.06C905.507 476.207 907.917 475.3 910.31 474.34L911.85 473.71C914.303 472.703 916.713 471.627 919.08 470.48C919.93 470.09 920.77 469.68 921.6 469.26C934.82 462.751 947.008 454.327 957.77 444.26C958.08 443.99 958.37 443.71 958.65 443.44C960.12 442.02 961.56 440.59 962.96 439.12L964.5 437.48C966.15 435.69 967.74 433.84 969.29 431.97L969.97 431.15C976.201 423.51 981.436 415.109 985.55 406.15C985.68 405.88 985.79 405.6 985.91 405.33C987.16 402.51 988.29 399.65 989.27 396.74C989.69 395.51 990.09 394.28 990.44 393.05C990.56 392.68 990.67 392.32 990.77 391.96C995.87 374.11 996.46 355.56 996.46 337.11C996.46 334.96 996.46 332.8 996.46 330.66C996.46 323.21 996.35 315.66 996.21 308.21C996.21 306.27 996.12 304.34 996.07 302.39C995.95 297.437 995.77 292.49 995.53 287.55C995.47 286.17 995.41 284.8 995.32 283.44C995.32 282.65 995.24 281.86 995.19 281.07C994.99 278.14 994.81 275.3 994.59 272.45Z" fill="#F80E0E"/>
<path opacity="0.1" d="M902.65 148.38H953.08C944.812 136.893 935.845 125.925 926.23 115.54C918.73 107.36 910.86 99.38 902.62 91.7L902.65 148.38Z" fill="#F80E0E"/>
<path opacity="0.1" d="M902.65 151.82V269.01H994.3C994.3 268.67 994.24 268.32 994.21 268.01C994.13 267.09 994.05 266.17 993.96 265.24C993.87 264.31 993.75 263.08 993.63 261.99C993.51 260.9 993.39 259.64 993.25 258.48C993.11 257.32 992.99 256.13 992.84 254.96C992.69 253.79 992.55 252.62 992.39 251.46C992.23 250.3 992.08 249.12 991.9 247.96C991.76 246.96 991.63 246.04 991.48 245.07C991.27 243.71 991.05 242.34 990.82 240.99C990.794 240.788 990.757 240.588 990.71 240.39C989.055 230.454 986.805 220.626 983.97 210.96C980.973 200.719 977.171 190.731 972.6 181.09C967.671 170.891 961.95 161.095 955.49 151.79L902.65 151.82Z" fill="#F80E0E"/>
<path opacity="0.1" d="M684.31 272.45V383.9H880.69V272.45H684.31ZM684.31 387.34V462.81C707.17 455.5 733.31 458.45 757.01 464.45C775.36 469.11 793.24 475.45 811.56 480.01C819.742 482.1 828.049 483.67 836.43 484.71L838.49 484.93C839.49 485.03 840.49 485.13 841.49 485.21L844.49 485.42H844.8H846.14C846.293 485.43 846.447 485.43 846.6 485.42L848.22 485.48H848.27C849.04 485.48 849.82 485.48 850.6 485.54H851.6C852.37 485.54 853.15 485.54 853.93 485.54H855.64H857.02C857.61 485.54 858.19 485.54 858.77 485.48C859.71 485.48 860.65 485.4 861.6 485.33L863.35 485.22L865.51 485.05C867.04 484.93 868.51 484.77 870.06 484.59C870.66 484.52 871.27 484.45 871.87 484.36L872.76 484.25C874.27 484.05 875.76 483.81 877.27 483.56C878.38 483.39 879.49 483.18 880.61 482.98V387.34H684.31ZM830.37 148.34V151.78H684.31V269.01H880.69V151.82H870.84V148.38H880.69V72.64C842.49 41.87 797.84 17.77 748.11 6.63997C727.165 2.00392 705.76 -0.227177 684.31 -0.0100259V148.38L830.37 148.34ZM381.37 147.68L382.06 148.34H662.34V1.01997C612.44 5.16997 563.78 21.93 524.55 49.7C505.7 63.03 488.77 78.83 467.62 89.06C456.522 94.5671 444.397 97.7004 432.02 98.26L381.37 147.68ZM379.44 87.24V120.59L406.52 94.16C396.45 90.68 388.51 88.3 379.4 87.28L379.44 87.24ZM378.54 506.8H379.44V579.9C389.66 579.14 399.84 578.093 409.98 576.76C455.323 570.917 499.753 559.407 542.23 542.5V542.5C546.79 540.673 551.317 538.787 555.81 536.84C558.803 535.54 561.78 534.207 564.74 532.84C569.18 530.8 573.587 528.703 577.96 526.55C597.313 517.038 615.982 506.192 633.83 494.09C634.94 493.34 636.06 492.58 637.16 491.81C639.373 490.277 641.57 488.73 643.75 487.17C644.84 486.38 645.93 485.59 647.01 484.79L649.23 483.09C651.47 481.42 653.7 479.74 655.96 478.09C658.05 476.59 660.16 475.09 662.3 473.69V387.29H437.15C437.31 386.78 437.46 386.29 437.63 385.75C437.45 386.27 437.29 386.75 437.14 387.29H379.4V506.78L378.54 506.8ZM379.44 151.8V269.01H662.34V151.82L379.44 151.8ZM379.44 272.43V383.9H662.34V272.45L379.44 272.43ZM322.88 90.67L357.44 124.4V87.09C345.86 87.81 334.34 89.0033 322.88 90.67ZM82.23 272.45V383.9H357.44V272.45H82.23ZM148.75 547.7C190.464 563.58 234.078 573.928 278.48 578.48H278.67C287.063 579.367 295.48 580.053 303.92 580.54H304.23C321.92 581.54 339.68 581.77 357.41 581.11V387.34H82.23L83.23 515.66L148.75 547.7ZM6 383.9H60.28V272.45H38.81C36.58 276.37 34.42 280.31 32.37 284.31C31.27 286.437 30.2 288.587 29.16 290.76C15.03 320.09 6.05 352.33 6 383.9ZM6 387.34C6.44 409.98 11.54 432.2 22.73 452.73C32.03 469.78 44.95 484.73 60.24 497.73V387.34H6ZM40.78 269.01H60.24V240.01C53.2261 249.303 46.7424 258.986 40.82 269.01H40.78ZM162.71 148.38H350.95L351.63 147.72L350.63 146.72L297.7 95.09C281.99 98.3692 266.475 102.526 251.23 107.54C249.79 108.01 248.35 108.54 246.92 108.99C217.483 118.975 189.242 132.185 162.71 148.38V148.38ZM82.23 213.75V269.01H323.59H323.64H357.47V155.01L353.61 151.87H157.17C129.63 169.184 104.441 189.982 82.23 213.75V213.75Z" fill="#F80E0E"/>
<path opacity="0.1" d="M902.65 210.93V269.01H994.3C994.3 268.67 994.24 268.32 994.21 268.01C994.13 267.09 994.05 266.17 993.96 265.24C993.87 264.31 993.75 263.08 993.63 261.99C993.51 260.9 993.39 259.64 993.25 258.48C993.11 257.32 992.99 256.13 992.84 254.96C992.69 253.79 992.55 252.62 992.39 251.46C992.23 250.3 992.08 249.12 991.9 247.96C991.76 246.96 991.63 246.04 991.48 245.07C991.27 243.71 991.05 242.34 990.82 240.99C990.794 240.788 990.757 240.588 990.71 240.39C989.055 230.454 986.805 220.626 983.97 210.96L902.65 210.93Z" fill="#F80E0E"/>
<path opacity="0.1" d="M994.59 272.45H902.65V383.9H987.87C988.09 385.05 988.3 386.2 988.55 387.34H902.65V477.2L903.08 477.06C905.507 476.207 907.917 475.3 910.31 474.34L911.85 473.71C914.303 472.703 916.713 471.627 919.08 470.48C919.93 470.09 920.77 469.68 921.6 469.26C934.82 462.751 947.008 454.327 957.77 444.26C958.08 443.99 958.37 443.71 958.65 443.44C960.12 442.02 961.56 440.59 962.96 439.12L964.5 437.48C966.15 435.69 967.74 433.84 969.29 431.97L969.97 431.15C976.201 423.51 981.436 415.109 985.55 406.15C985.68 405.88 985.79 405.6 985.91 405.33C987.16 402.51 988.29 399.65 989.27 396.74C989.69 395.51 990.09 394.28 990.44 393.05C990.56 392.68 990.67 392.32 990.77 391.96C995.87 374.11 996.46 355.56 996.46 337.11C996.46 334.96 996.46 332.8 996.46 330.66C996.46 323.21 996.35 315.66 996.21 308.21C996.21 306.27 996.12 304.34 996.07 302.39C995.95 297.437 995.77 292.49 995.53 287.55C995.47 286.17 995.41 284.8 995.32 283.44C995.32 282.65 995.24 281.86 995.19 281.07C994.99 278.14 994.81 275.3 994.59 272.45Z" fill="#F80E0E"/>
<path opacity="0.1" d="M811.56 168.6V269.01H880.69V168.6H870.84V134.6H830.37V168.6H811.56Z" fill="#F80E0E"/>
<path opacity="0.1" d="M880.69 272.45H811.56V383.89H880.69V272.45Z" fill="#F80E0E"/>
<path opacity="0.1" d="M880.69 387.34H811.57V480.01C819.75 482.096 828.053 483.666 836.43 484.71L838.49 484.93C839.49 485.04 840.49 485.13 841.49 485.21L844.49 485.42C844.59 485.42 844.7 485.42 844.8 485.42C845.24 485.42 845.69 485.42 846.14 485.48H846.6C847.14 485.48 847.68 485.48 848.23 485.54C849 485.54 849.78 485.54 850.56 485.6H851.56C852.34 485.6 853.11 485.6 853.89 485.6H855.6H856.98L858.74 485.54C859.67 485.54 860.62 485.46 861.56 485.39L863.3 485.28L865.47 485.11C866.99 484.98 868.47 484.83 870.01 484.65L871.82 484.42L872.71 484.31C874.22 484.1 875.71 483.88 877.22 483.62C878.34 483.45 879.44 483.24 880.56 483.04L880.69 387.34Z" fill="#F80E0E"/>
<path opacity="0.1" d="M436.41 156.74H379.4V269H436.41V156.74Z" fill="#F80E0E"/>
<path opacity="0.1" d="M379.4 272.45V383.9H662.34V335.83H511.63V364.19H436.4V272.45H379.4Z" fill="#F80E0E"/>
<path opacity="0.1" d="M378.5 506.84H379.4V579.95C389.62 579.177 399.8 578.13 409.94 576.81C455.297 570.944 499.74 559.418 542.23 542.5C554.39 537.62 566.3 532.307 577.96 526.56C597.314 517.045 615.982 506.195 633.83 494.09C638.29 491.063 642.68 487.967 647 484.8C650 482.59 653 480.34 656 478.15C658.09 476.65 660.2 475.15 662.34 473.74V387.34H437.16C437.32 386.83 437.47 386.34 437.63 385.81C437.46 386.32 437.29 386.81 437.14 387.34H379.4V506.79L378.5 506.84Z" fill="#F80E0E"/>
<path opacity="0.1" d="M230.73 148.38H267.87V138.09H251.23V107.54C249.79 108.01 248.35 108.54 246.92 108.99V138.09H230.73V148.38Z" fill="#F80E0E"/>
<path opacity="0.1" d="M141.23 269.01H323.59H323.53H323.62H357.44V156.74H347.86V239.74H304.06V190.62H267.87V151.82H230.73V190.62H194.55V239.73H141.23V269.01Z" fill="#F80E0E"/>
<path opacity="0.1" d="M141.23 272.45V383.9H357.44V272.45H141.23ZM148.78 547.7C190.494 563.58 234.108 573.928 278.51 578.48H278.7C287.093 579.367 295.51 580.053 303.95 580.54H304.26C321.95 581.54 339.71 581.77 357.44 581.11V387.34H141.23V426.85H82.23L82.54 515.06" fill="#F80E0E"/>
<path opacity="0.1" d="M56.47 387.34H6.03998C6.47998 409.98 11.59 432.2 22.77 452.73C32.07 469.79 45 484.73 60.28 497.73V426.85H56.47V387.34Z" fill="#F80E0E"/>
<path opacity="0.1" d="M6 383.9H56.47V290.76H29.16C15.03 320.09 6.05 352.33 6 383.9Z" fill="#F80E0E"/>
<path opacity="0.1" d="M409.94 187.95H379.4V223.15H409.94V187.95Z" fill="#F80E0E"/>
<path opacity="0.1" d="M409.94 260.91H379.4V269.01H409.94V260.91Z" fill="#F80E0E"/>
<path opacity="0.1" d="M409.94 272.45H379.4V296.1H409.94V272.45Z" fill="#F80E0E"/>
<path opacity="0.1" d="M409.94 333.86H379.4V369.06H409.94V333.86Z" fill="#F80E0E"/>
<path opacity="0.1" d="M409.94 406.82H379.4V442.02H409.94V406.82Z" fill="#F80E0E"/>
<path opacity="0.1" d="M379.4 506.79H378.5H379.4V514.96H409.94V479.76H379.4V506.79Z" fill="#F80E0E"/>
<path opacity="0.1" d="M379.4 552.72V579.91C389.62 579.137 399.8 578.09 409.94 576.77V552.77L379.4 552.72Z" fill="#F80E0E"/>
<path opacity="0.1" d="M662.34 381.31H531.46V383.89H662.34V381.31Z" fill="#F80E0E"/>
<path opacity="0.1" d="M662.34 387.34H531.46V397.25H662.34V387.34Z" fill="#F80E0E"/>
<path opacity="0.1" d="M662.34 429.73H531.46V445.67H662.34V429.73Z" fill="#F80E0E"/>
<path opacity="0.1" d="M531.46 478.15V494.09H633.84C638.287 491.07 642.677 487.97 647.01 484.79C650.01 482.59 653.01 480.34 656.01 478.16L531.46 478.15Z" fill="#F80E0E"/>
<path opacity="0.1" d="M531.46 526.56V542.5H542.23C554.383 537.633 566.29 532.32 577.95 526.56H531.46Z" fill="#F80E0E"/>
<path opacity="0.1" d="M278.5 306.17H304.26V283.26H278.5V306.17Z" fill="#F80E0E"/>
<path opacity="0.1" d="M836.36 199.41H862.12V176.5H836.36V199.41Z" fill="#F80E0E"/>
<path opacity="0.1" d="M836.36 252.63H862.12V229.72H836.36V252.63Z" fill="#F80E0E"/>
<path opacity="0.1" d="M836.36 305.84H862.12V282.93H836.36V305.84Z" fill="#F80E0E"/>
<path opacity="0.1" d="M836.36 359.06H862.12V336.15H836.36V359.06Z" fill="#F80E0E"/>
<path opacity="0.1" d="M836.36 412.29H862.12V389.38H836.36V412.29Z" fill="#F80E0E"/>
<path opacity="0.1" d="M836.36 465.5H862.12V442.59H836.36V465.5Z" fill="#F80E0E"/>
<path opacity="0.1" d="M180.14 306.17H205.9V283.26H180.14V306.17Z" fill="#F80E0E"/>
<path opacity="0.1" d="M278.5 362.67H304.26V339.76H278.5V362.67Z" fill="#F80E0E"/>
<path opacity="0.1" d="M180.14 362.67H205.9V339.76H180.14V362.67Z" fill="#F80E0E"/>
<path opacity="0.1" d="M278.5 419.18H304.26V396.27H278.5V419.18Z" fill="#F80E0E"/>
<path opacity="0.1" d="M180.14 419.18H205.9V396.27H180.14V419.18Z" fill="#F80E0E"/>
<path opacity="0.1" d="M278.5 475.69H304.26V452.78H278.5V475.69Z" fill="#F80E0E"/>
<path opacity="0.1" d="M180.14 475.69H205.9V452.78H180.14V475.69Z" fill="#F80E0E"/>
<path opacity="0.1" d="M278.5 532.21H304.26V509.3H278.5V532.21Z" fill="#F80E0E"/>
<path opacity="0.1" d="M180.14 532.21H205.9V509.3H180.14V532.21Z" fill="#F80E0E"/>
<path opacity="0.1" d="M304.25 580.58V565.81H278.5V578.48L304.25 580.58Z" fill="#F80E0E"/>
<path opacity="0.1" d="M902.65 240.35V253.46H990.82V240.35H902.65ZM982.04 241.18H989.23V252.64H982L982.04 241.18ZM973.26 241.18H980.49V252.64H973.23L973.26 241.18ZM964.5 241.18H971.73V252.64H964.5V241.18ZM955.72 241.18H962.95V252.64H955.72V241.18ZM946.95 241.18H954.23V252.64H947L946.95 241.18ZM938.17 241.18H945.4V252.64H938.17V241.18ZM929.39 241.18H936.62V252.64H929.39V241.18ZM920.62 241.18H927.85V252.64H920.62V241.18ZM911.85 241.18H919.08V252.64H911.85V241.18ZM903.08 241.18H910.31V252.64H903.08V241.18Z" fill="#F80E0E"/>
<path opacity="0.1" d="M902.65 278.51V291.62H990.82V278.51H902.65ZM982.04 279.34H989.23V290.79H982L982.04 279.34ZM973.26 279.34H980.49V290.79H973.23L973.26 279.34ZM964.5 279.34H971.73V290.79H964.5V279.34ZM955.72 279.34H962.95V290.79H955.72V279.34ZM946.95 279.34H954.23V290.79H947L946.95 279.34ZM938.17 279.34H945.4V290.79H938.17V279.34ZM929.39 279.34H936.62V290.79H929.39V279.34ZM920.62 279.34H927.85V290.79H920.62V279.34ZM911.85 279.34H919.08V290.79H911.85V279.34ZM903.08 279.34H910.31V290.79H903.08V279.34Z" fill="#F80E0E"/>
<path opacity="0.1" d="M902.65 316.66V329.76H990.82V316.66H902.65ZM982.04 317.48H989.23V328.94H982L982.04 317.48ZM973.26 317.48H980.49V328.94H973.23L973.26 317.48ZM964.5 317.48H971.73V328.94H964.5V317.48ZM955.72 317.48H962.95V328.94H955.72V317.48ZM946.95 317.48H954.23V328.94H947L946.95 317.48ZM938.17 317.48H945.4V328.94H938.17V317.48ZM929.39 317.48H936.62V328.94H929.39V317.48ZM920.62 317.48H927.85V328.94H920.62V317.48ZM911.85 317.48H919.08V328.94H911.85V317.48ZM903.08 317.48H910.31V328.94H903.08V317.48Z" fill="#F80E0E"/>
<path opacity="0.1" d="M902.65 354.81V367.91H990.82V354.81H902.65ZM982.04 355.63H989.23V367.09H982L982.04 355.63ZM973.26 355.63H980.49V367.09H973.23L973.26 355.63ZM964.5 355.63H971.73V367.09H964.5V355.63ZM955.72 355.63H962.95V367.09H955.72V355.63ZM946.95 355.63H954.23V367.09H947L946.95 355.63ZM938.17 355.63H945.4V367.09H938.17V355.63ZM929.39 355.63H936.62V367.09H929.39V355.63ZM920.62 355.63H927.85V367.09H920.62V355.63ZM911.85 355.63H919.08V367.09H911.85V355.63ZM903.08 355.63H910.31V367.09H903.08V355.63Z" fill="#F80E0E"/>
<path opacity="0.1" d="M902.65 392.96V406.09H985.55C985.67 405.82 985.79 405.54 985.9 405.27H982.04V393.79H989.23V396.64C989.65 395.42 990.05 394.2 990.4 392.96H902.65ZM973.26 393.79H980.49V405.24H973.23L973.26 393.79ZM964.5 393.79H971.73V405.24H964.5V393.79ZM955.72 393.79H962.95V405.24H955.72V393.79ZM946.95 393.79H954.23V405.24H947L946.95 393.79ZM938.17 393.79H945.4V405.24H938.17V393.79ZM929.39 393.79H936.62V405.24H929.39V393.79ZM920.62 393.79H927.85V405.24H920.62V393.79ZM911.85 393.79H919.08V405.24H911.85V393.79ZM903.08 393.79H910.31V405.24H903.08V393.79Z" fill="#F80E0E"/>
<path opacity="0.1" d="M902.65 431.09V444.19H957.76C958.08 443.92 958.36 443.63 958.65 443.37H955.72V431.94H962.95V439.09L964.5 437.44V431.94H969.29C969.52 431.66 969.74 431.38 969.97 431.12L902.65 431.09ZM946.95 431.91H954.23V443.37H947L946.95 431.91ZM938.17 431.91H945.4V443.37H938.17V431.91ZM929.39 431.91H936.62V443.37H929.39V431.91ZM920.62 431.91H927.85V443.37H920.62V431.91ZM911.85 431.91H919.08V443.37H911.85V431.91ZM903.08 431.91H910.31V443.37H903.08V431.91Z" fill="#F80E0E"/>
<path opacity="0.1" d="M902.65 469.27V477.2C902.797 477.161 902.94 477.11 903.08 477.05V470.05H910.31V474.31L911.85 473.68V470.09H919.08V470.49C919.93 470.1 920.77 469.69 921.6 469.28L902.65 469.27Z" fill="#F80E0E"/>
<path opacity="0.1" d="M323.56 269.03H323.61H323.56ZM378.5 506.84H379.4H378.5ZM437.14 387.34C437.3 386.83 437.45 386.34 437.62 385.8C437.45 386.32 437.29 386.83 437.14 387.34ZM323.56 269.03H323.61H323.56ZM830.37 148.38V151.82H870.84V148.38H830.37ZM378.5 506.84H379.4H378.5ZM437.14 387.34C437.3 386.83 437.45 386.34 437.62 385.8C437.45 386.32 437.29 386.83 437.14 387.34ZM323.56 269.03H323.61H323.56ZM378.5 506.84H379.4H378.5ZM437.14 387.34C437.3 386.83 437.45 386.34 437.62 385.8C437.45 386.32 437.29 386.83 437.14 387.34Z" fill="#F80E0E"/>
<path d="M668.32 535.25L651.04 534.3L649.87 484.67L649.6 472.85L667.83 469.49L667.95 484.73L668.32 535.25Z" fill="#D48A9B"/>
<path d="M654.87 526.61L566.07 581.82L564.15 598.62L573.75 599.1V587.1L631.83 554.46L561.75 641.34V654.78H573.27L572.31 639.9L653.43 547.74L663.51 548.7L748.96 645.66L750.88 661.99L762.4 662.47L760.48 645.66L692.8 561.18L737.92 592.38L738.88 605.82L748 606.3L747.04 589.98L661.11 523.73L654.87 526.61Z" fill="#D48A9B"/>
<path d="M543.31 432.18C551.696 421.746 558.725 410.292 564.23 398.09C570.34 384.57 577.04 368.96 577.55 364.34C578.55 355.7 602.99 338.42 629.87 337.46C647.4 336.83 674.71 323.15 691.61 313.7C707.507 304.661 725.185 299.201 743.41 297.7C763.18 296.21 781.77 300.09 772.41 323.03L646.71 475.25C646.71 475.25 539.51 494.14 532.9 463.77C532.53 462.239 532.018 460.746 531.37 459.31C530.12 456.44 529.79 448.95 543.31 432.18Z" fill="#F80E0E"/>
<path opacity="0.2" d="M552.75 435.2C561.191 424.653 568.289 413.098 573.88 400.8C579.58 388.16 585.63 373.99 586.11 369.7C587.03 361.45 610.45 344.94 636.17 344.02C652.94 343.42 679.07 330.36 695.23 321.33C710.453 312.708 727.372 307.508 744.81 306.09C763.72 304.67 781.51 308.38 772.59 330.29L672.88 476.29C672.88 476.29 549.88 493.74 543.37 464.87C542.984 463.337 542.472 461.839 541.84 460.39C540.7 457.53 540.54 450.52 552.75 435.2Z" fill="#DDA2A6"/>
<path opacity="0.1" d="M667.95 484.73C662.17 484.73 656.08 484.73 649.87 484.67L649.6 472.85L667.83 469.5L667.95 484.73Z" fill="black"/>
<g opacity="0.1">
<path opacity="0.1" d="M737.92 589.5L692.8 558.3L697.97 564.75L737.92 592.38L738.88 605.82L748 606.3L747.83 603.41L738.88 602.94L737.92 589.5Z" fill="black"/>
<path opacity="0.1" d="M573.75 584.22V587.1L627.58 556.85L631.83 551.58L573.75 584.22Z" fill="black"/>
<path opacity="0.1" d="M561.75 651.9V654.78H573.27L573.08 651.9H561.75Z" fill="black"/>
<path opacity="0.1" d="M573.75 596.22L564.47 595.76L564.15 598.62L573.75 599.1V596.22Z" fill="black"/>
<path opacity="0.1" d="M750.88 659.11L748.96 642.78L663.51 545.82L653.43 544.86L572.31 637.02L572.48 639.71L653.43 547.74L663.51 548.7L748.96 645.66L750.88 661.99L762.4 662.47L762.07 659.57L750.88 659.11Z" fill="black"/>
</g>
<path opacity="0.1" d="M657.75 390.15C657.75 390.15 680.23 406.59 670.39 406.78C660.55 406.97 657.75 390.15 657.75 390.15Z" fill="black"/>
<path d="M563.43 480.09C563.43 480.09 600.63 477.21 614.55 450.33C614.55 450.33 642.87 394.16 665.92 387.92C688.97 381.68 731.68 367.76 749.44 346.16C767.2 324.56 774.65 308 774.65 308C774.65 308 779.23 325.48 764.8 346.09C750.37 366.7 745.12 398.44 735.04 432.09C724.96 465.74 721.12 479.09 702.88 481.09C689.13 482.54 616.43 481.81 581.67 481.09C570.3 480.78 563.43 480.09 563.43 480.09Z" fill="#F80E0E"/>
<path opacity="0.2" d="M563.43 480.09C563.43 480.09 600.63 477.21 614.55 450.33C614.55 450.33 642.87 394.16 665.92 387.92C688.97 381.68 731.68 367.76 749.44 346.16C767.2 324.56 774.65 308 774.65 308C774.65 308 779.23 325.48 764.8 346.09C750.37 366.7 745.12 398.44 735.04 432.09C724.96 465.74 721.12 479.09 702.88 481.09C689.13 482.54 616.43 481.81 581.67 481.09C570.3 480.78 563.43 480.09 563.43 480.09Z" fill="#DDA2A6"/>
<path d="M572.79 480.09C572.79 480.09 608.35 477.3 621.65 451.27C621.65 451.27 648.73 396.89 670.75 390.85C692.77 384.81 733.61 371.32 750.59 350.41C767.57 329.5 774.68 313.46 774.68 313.46C774.68 313.46 779.03 330.46 765.27 350.41C751.51 370.36 746.46 401.07 736.82 433.61C727.18 466.15 723.52 479.16 706.08 481.02C692.94 482.42 623.45 481.71 590.22 481.02C579.36 480.81 572.79 480.09 572.79 480.09Z" fill="#F80E0E"/>
<path opacity="0.1" d="M543.99 466.09C543.99 466.09 563.43 473.53 574.47 469.45C585.51 465.37 612.87 453.37 612.87 453.37C612.87 453.37 566.79 456.29 543.99 466.09Z" fill="black"/>
<path d="M673.97 815.44C673.97 815.44 618.09 812.44 604.47 804.44C590.85 796.44 571.57 796.44 571.47 796.44L348.97 747.94L256.47 725.94L239.97 723.77L294.47 661.41L296.13 660.69L376.47 625.94C376.47 625.94 412.47 627.94 419.58 651.4C420.066 653.053 420.401 654.746 420.58 656.46C421.326 663.776 419.299 671.106 414.9 677C412.06 680.88 408.57 686.39 407.47 691.24C406.85 693.98 406.99 696.51 408.47 698.44C411.47 701.418 414.782 704.063 418.35 706.33C437.94 719.33 487.46 740.75 573.97 707.94C573.97 707.94 610.97 671.44 638.97 686.94C666.97 702.44 673.97 815.44 673.97 815.44Z" fill="#E1DEE5"/>
<path opacity="0.1" d="M407.51 691.24C406.89 693.98 407.03 696.51 408.51 698.44C411.51 701.418 414.822 704.063 418.39 706.33L249.97 718.94L296.13 660.69L376.47 625.94C376.47 625.94 412.47 627.94 419.58 651.4C420.066 653.053 420.401 654.746 420.58 656.46C421.326 663.776 419.299 671.106 414.9 677C412.1 680.88 408.61 686.39 407.51 691.24Z" fill="black"/>
<path d="M242.97 461.94L380.97 464.94V630.13L249.97 718.94L218.47 689.94L224.97 593.94L218.47 504.44L242.97 461.94Z" fill="#A36468"/>
<path d="M164.47 434.94L325.59 385.29C328.485 384.404 331.52 384.065 334.54 384.29L719.44 412.38C752.361 414.639 784.047 425.815 811.1 444.71C836.01 462.28 860.68 489.25 872.1 530.09C880.361 560.226 879.788 592.101 870.45 621.92L836.45 731.92C836.45 731.92 861.95 492.92 607.45 480.92L164.47 434.94Z" fill="#D9D6DF"/>
<path d="M249.97 458.44V723.77C249.97 723.77 205.82 717.56 197.97 708.94C191.53 701.87 154.22 681.94 138.03 661.41C134.48 656.91 131.94 652.41 130.97 647.94C125.55 623.26 103.47 564.94 103.47 564.94L109.47 507.94L134.47 470.94L182.97 448.94H220.47L249.97 458.44Z" fill="#B8797D"/>
<path d="M179.97 461.94C179.97 461.94 108.21 506.94 123.91 579.35C125.19 585.25 126.3 591.18 127.03 597.18C129.9 620.6 147.12 687.9 249.97 718.94V725.94L206.34 713.77L176.72 697.44L154.11 677.16L126.47 643.44L113.64 615.94L108.94 579.72L106.23 538.37L112.84 502.9L128.43 479.82L147.43 465.05L179.97 461.94Z" fill="#D9D6DF"/>
<path opacity="0.1" d="M249.97 458.44V500.65C218.67 504.05 121.76 523.65 138.97 635.65L138.02 661.37C134.47 656.87 131.93 652.37 130.96 647.9C125.54 623.22 103.46 564.9 103.46 564.9L109.46 507.9L134.46 470.9L182.96 448.9H220.46L249.97 458.44Z" fill="black"/>
<path opacity="0.1" d="M414.94 677C412.1 680.88 408.61 686.39 407.51 691.24C403.15 686.24 402.21 680.49 408.51 675.94C416.4 670.2 419.03 660.24 419.62 651.4C420.107 653.053 420.441 654.746 420.62 656.46C421.366 663.776 419.339 671.106 414.94 677V677Z" fill="white"/>
<path d="M818.97 703.94L799.97 768.44L756.97 810.44L702.97 821.44L618.97 806.44V507.94C618.97 507.94 633.47 498.44 634.97 498.44C636.47 498.44 676.97 504.94 676.97 504.94L768.67 570.71L772.47 573.44L813.47 634.44L818.97 703.94Z" fill="#B8797D"/>
<path d="M618.97 495.44V806.44L627.07 807.89V495.44H618.97Z" fill="#A36468"/>
<path opacity="0.1" d="M770.47 591.44C710.47 542.14 643.77 534.89 618.97 533.99V507.99C618.97 507.99 633.47 498.49 634.97 498.49C636.47 498.49 676.97 504.99 676.97 504.99L768.67 570.76L770.47 591.44Z" fill="black"/>
<path d="M606.3 475.44L230.47 434.44L188.23 432.2C175.067 431.439 161.903 433.686 149.738 438.772C137.572 443.857 126.725 451.647 118.02 461.55C96.02 486.85 79.39 531.48 103.68 608.11C103.68 608.11 129.01 707.44 251.68 728.78L608.12 809.55C616.02 811.34 623.82 813.55 631.52 816.06C663.88 826.69 773.52 854.23 825.17 760.61C842.87 728.51 848.17 691.08 841.35 655.05C828.92 589.15 781.99 477.32 606.3 475.44ZM790.43 756.33C742.23 834.85 642.91 811.48 613.05 802.26C605.74 800 598.34 798.03 590.85 796.43L261.59 725.99C148.15 707.36 124.72 620.63 124.72 620.63C105.57 563.63 113.94 526.85 129.42 503.57C145.63 479.2 173.85 465.57 203.09 467.05L242.01 469.05L578.17 513.96C584.97 514.87 591.82 515.47 598.68 515.7C748.17 520.77 794.68 602.97 806.5 659.62C813.44 692.73 808.16 727.47 790.43 756.33Z" fill="#E1DEE5"/>
<path d="M4.22997 642.55C16.54 650.79 35.23 646.87 35.23 646.87C35.23 646.87 63.42 633.52 71.75 633.52C80.08 633.52 100.34 625.27 100.34 625.27L99.65 619.71L97.59 602.96C110.42 612.96 124.68 609.51 131.7 608.78C139.24 608 179.53 584.05 183.41 582.47C184.46 582.05 185.69 580.68 186.94 578.91C189.535 574.941 191.816 570.775 193.76 566.45V566.45C196.28 564.23 198.12 562.45 197.99 562.06C197.86 561.67 198.99 558.75 200.46 555.46C206.18 554.46 211.11 552.34 212.68 551.06C213.97 550.028 215.003 548.71 215.697 547.211C216.391 545.712 216.728 544.072 216.68 542.42C216.68 542.42 255.99 502.77 250.82 486.28C245.65 469.79 263.53 469.39 263.53 469.39C263.53 469.39 290.92 457.61 294.73 450.55C297.08 446.2 317.63 436.65 333.09 429.95L334.99 429.13C340.99 442.28 371.47 432.13 377.47 426.6C383.82 420.71 402.47 417.96 402.47 417.96C402.47 417.96 403.27 340.96 409.22 331.18C412.05 326.53 412.73 311.33 412.66 296.65C412.66 296.13 412.66 295.65 412.66 295.09C421 293.46 440.84 289.69 450.05 288.78C455.89 288.2 461.98 284.56 466.65 281.02L467.2 281.71C468.805 282.369 470.539 282.653 472.27 282.54C473.803 282.712 475.352 282.423 476.72 281.71C480.3 279.71 493.4 275.82 498.16 273.86C502.92 271.9 497.37 257.76 493.8 255.01C490.23 252.26 487.8 248.73 489.8 247.16C491.8 245.59 485.04 241.66 481.07 240.87C477.1 240.08 465.19 234.59 465.19 234.59C465.19 234.59 460.82 225.59 453.68 225.59C446.54 225.59 437 218.52 437 218.52C436.61 215.38 429.06 214.99 429.06 214.99C429.06 214.99 400.48 192.99 395.71 195.75C390.94 198.51 377.85 191.43 377.85 191.43C377.85 191.43 361.78 193.23 358 190.27C357.966 189.298 357.614 188.364 357 187.61C356.15 184.95 352 181.31 348 178.28C348.306 176.402 348.46 174.503 348.46 172.6C348.46 171.78 348.46 170.96 348.37 170.15C348.37 170.01 348.37 169.88 348.37 169.74L348.94 164.21C348.979 162.391 349.452 160.609 350.32 159.01C350.99 158.01 351.98 157.16 352.73 156.17C352.905 155.937 353.065 155.693 353.21 155.44L353.33 155.23C353.44 155.039 353.54 154.842 353.63 154.64L353.72 154.44C353.941 153.897 354.112 153.334 354.23 152.76V152.63C354.28 152.37 354.32 152.11 354.35 151.84C354.345 151.803 354.345 151.767 354.35 151.73C354.514 149.445 354.208 147.151 353.45 144.99C352.26 141.28 350.4 137.7 350.2 133.83C350.1 131.91 350.42 129.95 350 128.07C349 123.78 344.63 121.07 340.38 119.27C334.51 116.81 331.55 114.12 326.84 110.46C322.84 107.36 316.22 108.92 311.18 109.24C299.66 109.98 288.29 113.45 277.45 117.03C273.24 118.43 268.95 120.03 265.67 122.88C263.462 124.758 261.945 127.321 261.36 130.16V130.16C261.246 130.82 261.203 131.491 261.23 132.16C261.23 132.22 261.23 132.28 261.23 132.33C261.23 132.59 261.23 132.84 261.32 133.09C261.314 133.173 261.314 133.257 261.32 133.34C261.37 133.645 261.443 133.946 261.54 134.24C262 135.69 262.85 137 263.34 138.44C263.451 138.767 263.541 139.101 263.61 139.44C263.61 139.44 263.61 139.51 263.61 139.54C263.68 139.86 263.73 140.17 263.77 140.54C264.21 144.11 262.89 147.84 262.31 151.48C262.23 151.99 262.17 152.48 262.13 153.04C261.957 155.146 262.143 157.266 262.68 159.31C262.676 159.333 262.676 159.357 262.68 159.38C262.74 159.63 262.83 159.88 262.91 160.12C262.937 160.228 262.971 160.335 263.01 160.44C263.08 160.65 263.17 160.86 263.25 161.06L263.42 161.48C263.5 161.66 263.59 161.84 263.68 162.02C263.77 162.2 263.83 162.32 263.91 162.46C263.992 162.624 264.082 162.785 264.18 162.94C264.27 163.1 264.37 163.25 264.47 163.4C264.57 163.55 264.66 163.69 264.77 163.83C264.88 163.97 265 164.14 265.12 164.29L265.43 164.67L265.85 165.11L266.18 165.44L266.67 165.86C266.79 165.95 266.89 166.05 267.01 166.13C267.13 166.21 267.42 166.42 267.63 166.55L267.92 166.75C268.24 166.94 268.58 167.11 268.92 167.27C271.2 168.27 274.08 168.68 275.45 170.69C275.777 171.159 276.005 171.69 276.12 172.25C276.12 172.38 276.12 172.52 276.12 172.65V173C276.12 174.16 276.2 175.31 276.32 176.44C276.311 177.062 276.348 177.684 276.43 178.3C276.497 178.765 276.624 179.219 276.81 179.65C278.41 187.552 282.64 194.679 288.81 199.87C288.93 200.48 289.07 201.19 289.22 201.99C285.726 204.612 281.824 206.639 277.67 207.99C268.14 210.78 254.67 223.65 254.67 223.65C254.67 223.65 247.97 271.94 246.36 277.83C244.75 283.72 243.56 306.5 243.56 306.5C243.56 306.5 241.97 315.92 239.56 320.63C237.87 323.95 238.18 338.22 242.88 346.89C242.114 348.595 241.132 350.194 239.96 351.65C230.43 362.65 201.84 362.25 192.31 362.25C183.54 362.25 180.83 367.57 180.46 368.41C163.01 373.41 106.51 389.49 99.81 392.41C91.87 395.88 87.5 430.17 87.5 430.17C87.5 430.17 70.91 487.09 71.7 494.55C72.49 502.01 66.14 522.79 66.14 522.79C66.14 522.79 66.14 546.28 63.45 547.87C63.4267 547.892 63.3996 547.909 63.37 547.92C60.59 549.1 60.98 560.49 60.98 560.49C60.98 560.49 63.03 561.08 66.22 561.89C65.37 567.64 62.22 575.69 59.79 581.41C58.55 579.84 57.34 579.19 56.62 581.01C54.62 586.01 24.86 621.35 17.31 621.35C13.72 621.35 7.77997 624.29 3.86997 628.26C-0.410027 632.63 -2.23003 638.24 4.22997 642.55ZM140.78 437.98C174.53 441.12 210.66 435.59 210.66 435.59C210.66 435.59 207.88 445.44 205.5 449.37C203.12 453.3 196.36 475.68 196.36 480.37C196.36 485.06 185.64 525.52 182.47 527.48C181.14 528.31 179.95 530.37 179.01 532.48C178.175 534.43 177.474 536.435 176.91 538.48C176.957 539.5 177.047 540.47 177.18 541.39C174.81 543.56 172.3 545.84 170.07 547.86C170.07 547.86 155.87 555.76 151.07 560.08C146.27 564.4 124.07 569.7 124.07 569.7C118.566 572.067 113.221 574.789 108.07 577.85C101.18 582 94.29 587.28 92.49 592.49C93.27 583.71 94.54 573.14 95.39 566.42L96.65 566.37C107.78 565.68 106.12 555.06 105.53 552.43C105.45 552.05 105.39 551.84 105.39 551.84C113.33 543.2 131.19 478.84 128.81 471.74C126.43 464.64 130.81 458.39 131.74 458.39C132.67 458.39 133.97 450.54 131.99 446.22C130.01 441.9 140.78 437.98 140.78 437.98ZM413.68 264.76L411.57 265.28V264.83C411.57 264.83 412.34 264.83 413.68 264.76V264.76ZM298.32 205.51C298 205.91 297.68 206.29 297.32 206.66L296.91 207.08C296.91 206.35 296.91 205.61 296.91 204.9C297.39 205.09 297.85 205.32 298.32 205.51ZM258.55 281.69L258.69 283.9C258.69 283.9 258.48 285.25 258.08 287.56L258.55 281.69ZM441 259.75L434.07 260.94C435.07 260.57 436.02 260.17 436.96 259.72C437.656 259.394 438.404 259.191 439.17 259.12C440.047 259.213 440.911 259.398 441.75 259.67C441.498 259.677 441.248 259.704 441 259.75V259.75Z" fill="url(#paint0_linear)"/>
<path d="M206.71 543.23C206.71 543.23 198.71 559.74 199.12 560.91C199.53 562.08 181.97 576.09 181.97 576.09L162.88 562.46L164.88 553.1C164.88 553.1 186.31 533.79 187.88 531.56C189.45 529.33 206.71 543.23 206.71 543.23Z" fill="#EFB7B9"/>
<path d="M97.81 599.09C111.06 611.95 126.64 608.09 134.05 607.28C141.46 606.47 180.99 582.73 184.79 581.17C185.79 580.75 187.04 579.39 188.26 577.63C190.809 573.688 193.046 569.552 194.95 565.26C194.69 565.33 181.73 569.04 178.46 565.26C178.46 565.26 173 558.57 171.83 558.57C170.66 558.57 171.74 546.83 171.74 546.83C171.74 546.83 157.8 554.67 153.13 558.96C148.46 563.25 126.63 568.5 126.63 568.5C121.231 570.849 115.993 573.552 110.95 576.59C100.63 582.89 90.23 591.78 97.81 599.09Z" fill="#67647E"/>
<path opacity="0.1" d="M97.81 599.09C111.06 611.95 126.64 608.09 134.05 607.28C141.46 606.47 180.99 582.73 184.79 581.17C185.79 580.75 187.04 579.39 188.26 577.63C183.65 574.88 153.53 594.03 145.1 597.54C136.67 601.05 115.34 599.09 103.23 594.03C97.23 591.5 103.31 583.73 110.93 576.59C100.63 582.89 90.23 591.78 97.81 599.09Z" fill="black"/>
<path d="M99.37 558.57C99.37 558.57 93.82 600.26 95.23 605.72C96.64 611.18 60.4 587.02 60.4 587.02C60.4 587.02 73.08 560.89 69.4 554.89C65.72 548.89 99.37 558.57 99.37 558.57Z" fill="#EFB7B9"/>
<path d="M64.69 559.35C64.69 559.35 87.29 565.97 99.75 565.19C110.67 564.51 109.04 553.97 108.47 551.36C108.39 550.99 108.33 550.78 108.33 550.78C116.12 542.2 133.66 478.3 131.33 471.29C129 464.28 133.23 458.09 134.23 458.09C135.23 458.09 136.42 450.29 134.47 446.01C132.52 441.73 143.05 437.83 143.05 437.83C176.17 440.94 211.63 435.45 211.63 435.45C211.63 435.45 208.9 445.23 206.56 449.13C204.22 453.03 197.56 475.23 197.56 479.91C197.56 484.59 187.04 524.72 183.92 526.67C182.62 527.49 181.45 529.53 180.53 531.67C179.708 533.621 179.02 535.626 178.47 537.67C179.64 563.78 209.25 553.67 213.54 550.14C214.151 549.632 214.707 549.062 215.2 548.44C216.705 546.467 217.491 544.04 217.43 541.56C217.43 541.56 256.01 502.21 250.94 485.84C245.87 469.47 263.41 469.09 263.41 469.09C263.41 469.09 290.3 457.4 294.04 450.38C296.35 446.07 316.51 436.6 331.69 429.94C341.2 425.77 348.75 422.72 348.75 422.72L342.43 400.06L337.43 382.19L328.05 378.67L298.05 367.39L244.23 359.84L239.3 360.48L187.01 367.25C187.01 367.25 110.67 389.09 102.87 392.51C95.07 395.93 90.79 429.98 90.79 429.98C90.79 429.98 74.43 486.48 75.23 493.92C76.03 501.36 69.77 521.92 69.77 521.92C69.77 521.92 69.77 545.23 67.12 546.81C67.0939 546.818 67.0661 546.818 67.04 546.81C64.3 548.09 64.69 559.35 64.69 559.35Z" fill="#444053"/>
<path opacity="0.1" d="M143.01 437.78C176.13 440.89 211.59 435.4 211.59 435.4C213.93 428.03 246.68 407.77 246.68 407.77C219.81 401.15 143.01 437.78 143.01 437.78Z" fill="black"/>
<path d="M178.47 537.53C179.64 563.64 209.25 553.53 213.54 550C214.151 549.492 214.707 548.923 215.2 548.3C204.85 552.11 186.5 555.06 180.53 531.57C179.71 533.508 179.022 535.499 178.47 537.53V537.53Z" fill="#444053"/>
<path d="M64.69 559.35C64.69 559.35 87.29 565.97 99.75 565.19C110.67 564.51 109.04 553.97 108.47 551.36C97.03 551 77.33 549.93 67.1 546.83C67.0739 546.838 67.0461 546.838 67.02 546.83C64.3 548.09 64.69 559.35 64.69 559.35Z" fill="#444053"/>
<path opacity="0.1" d="M178.47 537.53C179.64 563.64 209.25 553.53 213.54 550C214.151 549.492 214.707 548.923 215.2 548.3C204.85 552.11 186.5 555.06 180.53 531.57C179.71 533.508 179.022 535.499 178.47 537.53V537.53Z" fill="black"/>
<path opacity="0.1" d="M64.69 559.35C64.69 559.35 87.29 565.97 99.75 565.19C110.67 564.51 109.04 553.97 108.47 551.36C97.03 551 77.33 549.93 67.1 546.83C67.0739 546.838 67.0461 546.838 67.02 546.83C64.3 548.09 64.69 559.35 64.69 559.35Z" fill="black"/>
<path d="M8.95999 640.79C21.04 648.97 39.36 645.07 39.36 645.07C39.36 645.07 67.02 631.83 75.21 631.83C83.4 631.83 103.23 623.64 103.23 623.64L102.56 618.13L99.34 591.69C99.34 591.69 68.99 590.91 67.77 588.18C67.77 588.18 62.32 574.76 60.37 579.72C58.42 584.68 29.2 619.72 21.79 619.72C18.26 619.72 12.43 622.64 8.59999 626.58C4.42999 630.95 2.63999 636.51 8.95999 640.79Z" fill="#67647E"/>
<path opacity="0.1" d="M113.78 410.5C113.78 410.5 139.11 426.5 132.1 429.98C125.09 433.46 113.78 410.5 113.78 410.5Z" fill="black"/>
<path opacity="0.1" d="M103.23 441.28C103.23 441.28 125.05 462 116.87 462.55C108.69 463.1 103.23 441.28 103.23 441.28Z" fill="black"/>
<path opacity="0.1" d="M79.88 507.09C79.88 507.09 90.96 527.92 86.79 531.53C82.62 535.14 79.88 507.09 79.88 507.09Z" fill="black"/>
<path opacity="0.1" d="M201.85 528.18C197.95 532.07 238.85 515.32 229.51 514.54C220.17 513.76 201.85 528.18 201.85 528.18Z" fill="black"/>
<path d="M283.67 235.93L284.98 235.74C289.82 235 307.39 232.24 323.15 228.82C326.99 227.98 330.71 227.11 334.15 226.21C346.22 223.05 354.32 219.64 349.15 216.84C342.31 213.13 338.71 206.39 336.81 200.59C336.63 200.02 336.46 199.47 336.3 198.92C335.461 195.984 334.935 192.967 334.73 189.92C334.73 189.92 290.73 174.33 299.27 189.92C303.48 197.57 300.65 203.81 296.68 208.18C293.95 211.069 290.739 213.461 287.19 215.25L283.67 235.93Z" fill="#EFB7B9"/>
<path opacity="0.1" d="M330.82 223.85C330.82 223.85 315.07 235.15 298.98 225.8C282.89 216.45 261.85 308.41 261.85 308.41L240.03 362.18C240.03 362.18 225.9 373.87 243.49 378.94C261.08 384.01 300.1 373.87 310.01 388.68C319.92 403.49 338.68 405.82 340.6 405.82C342.52 405.82 349.94 350.09 349.94 350.09L351.87 269.43L330.82 223.85Z" fill="black"/>
<path d="M244.23 375.82C261.82 380.88 300.85 370.75 310.76 385.56C314.935 391.594 320.766 396.293 327.55 399.09C331.929 401.056 336.601 402.293 341.38 402.75C341.63 402.75 342 401.75 342.43 399.96C345.17 388.68 350.72 347.02 350.72 347.02L352.64 266.36L334.13 226.21L331.6 220.73C329.12 222.385 326.429 223.7 323.6 224.64C317.51 226.7 308.7 227.86 299.78 222.64C295.06 219.9 289.91 225.88 285 235.7C273.16 259.34 262.65 305.25 262.65 305.25L240.81 359.09C240.291 359.536 239.797 360.01 239.33 360.51C236.23 363.75 230.42 371.84 244.23 375.82Z" fill="#F3F5F9"/>
<path opacity="0.1" d="M328.07 378.53C327.209 385.335 327.034 392.21 327.55 399.05C328.18 408.782 329.403 418.467 331.21 428.05C331.322 428.652 331.483 429.244 331.69 429.82C341.2 425.65 348.75 422.6 348.75 422.6L342.43 399.94C345.17 388.66 350.72 347 350.72 347L352.64 266.34L334.13 226.21C346.2 223.05 354.3 219.64 349.13 216.84C341.63 212.77 338.02 205.05 336.28 198.92C333.11 203.34 329.397 207.344 325.23 210.84L324.99 211.04L323.59 224.64L323.16 228.82L322.26 237.49C322.26 237.49 326.55 339.97 329.66 345.82C332.77 351.67 331.22 362.96 328.5 376.21C328.33 376.96 328.23 377.73 328.07 378.53Z" fill="black"/>
<path d="M330.04 374.65C327.32 387.9 329.65 409.72 332.77 426.47C335.89 443.22 369.01 432.32 375.25 426.47C381.49 420.62 399.79 417.9 399.79 417.9C399.79 417.9 400.57 341.53 406.42 331.79C409.19 327.17 409.86 312.09 409.79 297.52C409.74 284.44 409.09 271.77 408.85 267.52C408.79 266.52 408.76 265.97 408.76 265.97C408.76 265.97 434.08 223.11 433.69 219.97C433.3 216.83 425.9 216.47 425.9 216.47C425.9 216.47 397.9 194.65 393.17 197.37C388.44 200.09 375.63 193.09 375.63 193.09C375.63 193.09 359.34 194.94 355.97 191.79C355.765 191.615 355.604 191.395 355.5 191.146C355.395 190.898 355.351 190.629 355.37 190.36C355.75 185.36 338.77 174.72 338.24 174.36C352.56 187.24 329.41 207.09 326.78 209.27L326.54 209.47L323.81 235.92C323.81 235.92 328.1 338.4 331.21 344.25C334.32 350.1 332.77 361.4 330.04 374.65Z" fill="#67647E"/>
<path d="M331.55 265.28C332.627 265.28 333.5 264.407 333.5 263.33C333.5 262.253 332.627 261.38 331.55 261.38C330.473 261.38 329.6 262.253 329.6 263.33C329.6 264.407 330.473 265.28 331.55 265.28Z" fill="#444053"/>
<path opacity="0.1" d="M327.56 210.84L339.4 222.29L356.75 193.29C356.545 193.115 356.384 192.895 356.28 192.646C356.175 192.398 356.131 192.129 356.15 191.86C356.53 186.86 339.54 176.22 339.02 175.86C353.34 188.81 330.23 208.66 327.56 210.84Z" fill="black"/>
<path opacity="0.1" d="M335.45 327.62C336.527 327.62 337.4 326.747 337.4 325.67C337.4 324.593 336.527 323.72 335.45 323.72C334.373 323.72 333.5 324.593 333.5 325.67C333.5 326.747 334.373 327.62 335.45 327.62Z" fill="black"/>
<path d="M335.45 326.84C336.527 326.84 337.4 325.967 337.4 324.89C337.4 323.813 336.527 322.94 335.45 322.94C334.373 322.94 333.5 323.813 333.5 324.89C333.5 325.967 334.373 326.84 335.45 326.84Z" fill="#444053"/>
<path d="M326.78 209.28L338.62 220.73L355.97 191.73C355.765 191.555 355.604 191.335 355.5 191.086C355.396 190.838 355.351 190.569 355.37 190.3C355.75 185.3 338.77 174.66 338.24 174.3C352.56 187.25 329.41 207.09 326.78 209.28Z" fill="#67647E"/>
<path d="M316.203 318.395L339.917 318.938C340.855 318.959 341.634 318.216 341.655 317.277L342.887 263.391C342.909 262.453 342.165 261.674 341.227 261.653L317.513 261.11C316.574 261.089 315.796 261.832 315.774 262.771L314.542 316.657C314.521 317.596 315.264 318.374 316.203 318.395Z" fill="#D1D9EC"/>
<path d="M316.342 319.662L340.056 320.205C340.994 320.226 341.773 319.483 341.794 318.544L343.026 264.658C343.048 263.719 342.304 262.941 341.366 262.92L317.652 262.377C316.713 262.356 315.935 263.099 315.913 264.038L314.681 317.924C314.66 318.863 315.403 319.641 316.342 319.662Z" fill="#DFE6F5"/>
<path d="M329.56 283.69C331.913 283.69 333.82 281.783 333.82 279.43C333.82 277.077 331.913 275.17 329.56 275.17C327.207 275.17 325.3 277.077 325.3 279.43C325.3 281.783 327.207 283.69 329.56 283.69Z" fill="white"/>
<path opacity="0.1" d="M182.75 371.14C192.49 375.43 256.4 364.14 265.75 361.4C275.1 358.66 288.75 337.63 282.12 322.4C275.49 307.17 284.45 292.4 284.45 292.4C284.45 292.4 298.45 262.4 301.6 256.55C304.75 250.7 311.22 233.69 312.12 230.84C312.157 230.52 312.127 230.196 312.032 229.888C311.937 229.58 311.78 229.294 311.57 229.05C309.03 225.22 299.23 218.4 299.23 218.4C296.48 219.4 296.14 211.51 296.23 205.72C296.29 202.48 296.48 199.9 296.48 199.9C296.48 199.9 295.19 201.21 293.08 203C292.31 203.65 291.43 204.37 290.45 205.11C286.796 208.037 282.661 210.308 278.23 211.82C268.88 214.59 255.63 227.36 255.63 227.36L259.53 287.2C259.53 287.2 250.53 343.48 241.21 354.39C231.89 365.3 203.8 364.91 194.45 364.91C185.1 364.91 182.75 371.14 182.75 371.14Z" fill="black"/>
<path d="M181.97 368.81C191.71 373.09 255.62 361.81 264.97 359.06C274.32 356.31 287.97 335.29 281.34 320.06C274.71 304.83 283.67 290.06 283.67 290.06C283.67 290.06 297.67 260.06 300.82 254.21C303.97 248.36 310.44 231.35 311.34 228.5C311.376 228.18 311.346 227.856 311.251 227.548C311.156 227.24 310.999 226.955 310.79 226.71C308.23 222.89 298.48 216.09 298.48 216.09C295.73 217.09 295.39 209.21 295.48 203.42C295.54 200.17 295.73 197.59 295.73 197.59C295.73 197.59 294.44 198.9 292.33 200.7C291.56 201.34 290.68 202.06 289.7 202.8C286.028 205.733 281.872 208.004 277.42 209.51C268.07 212.28 254.82 225.05 254.82 225.05L258.72 284.89C258.72 284.89 249.72 341.17 240.4 352.08C231.08 362.99 203 362.6 193.64 362.6C184.28 362.6 181.97 368.81 181.97 368.81Z" fill="#67647E"/>
<path opacity="0.1" d="M287.96 199.09C287.96 199.09 288.33 201.14 288.96 204.3C291.06 215 296.06 238.36 299.67 237.46C302.26 236.81 306.67 232.23 310.03 228.27C307.5 224.41 297.72 217.59 297.72 217.59C294.97 218.59 294.63 210.71 294.72 204.92L291.57 202.2L287.96 199.09Z" fill="black"/>
<path d="M288.74 197.56C288.74 197.56 289.11 199.61 289.74 202.77C291.84 213.47 296.84 236.83 300.45 235.93C303.04 235.28 307.45 230.7 310.81 226.74C308.23 222.89 298.48 216.09 298.48 216.09C295.73 217.09 295.39 209.21 295.48 203.42L292.33 200.7L288.74 197.56Z" fill="#67647E"/>
<path d="M263.8 312.3C263.8 312.3 283.29 308.41 288.74 299.84C294.19 291.27 331.31 283.84 326.74 292.84C322.17 301.84 288.74 331.13 288.74 331.13L274.23 351.9L254.85 346.98L246.68 331.09L263.8 312.3Z" fill="#EFB7B9"/>
<path opacity="0.1" d="M309.9 334.54C309.9 334.54 291.03 341.54 288.19 350.9C285.35 360.26 309.9 334.54 309.9 334.54Z" fill="black"/>
<path opacity="0.1" d="M321.47 345.43C321.47 345.43 323.19 355.16 299.54 354.43L321.47 345.43Z" fill="black"/>
<path opacity="0.1" d="M423.56 220.73L432.14 219.95C432.14 219.95 441.49 226.95 448.5 226.95C455.51 226.95 459.8 235.95 459.8 235.95C459.8 235.95 471.49 241.41 475.39 242.19C479.29 242.97 485.91 246.86 483.96 248.42C482.01 249.98 484.35 253.49 487.86 256.21C491.37 258.93 496.86 272.97 492.14 274.92C487.42 276.87 474.61 280.76 471.14 282.71C467.67 284.66 463.35 282.71 463.35 282.71C463.35 282.71 442.71 255.82 432.18 260.89C421.65 265.96 407.23 265.93 407.23 265.93L395.93 242.17L423.56 220.73Z" fill="black"/>
<path d="M244.23 348.95C246.07 351.69 248.45 353.61 251.5 354C259.127 354.892 266.856 354.176 274.19 351.9C274.19 351.9 234.94 339.43 272.73 309.11H262.63L259.23 307.83L260.77 299.76L262.99 226.97L254.81 225.02C254.81 225.02 248.22 272.95 246.65 278.79C245.08 284.63 243.9 307.24 243.9 307.24C243.9 307.24 242.34 316.59 240 321.24C238.23 324.78 238.72 340.63 244.23 348.95Z" fill="#67647E"/>
<path opacity="0.1" d="M245.82 348.95C247.65 351.69 250.04 353.61 253.09 354C260.717 354.892 268.446 354.176 275.78 351.9C275.78 351.9 236.53 339.43 274.32 309.09H264.23L260.86 307.81C255.23 317.66 246.53 335.15 245.82 348.95Z" fill="black"/>
<path d="M244.23 348.95C246.07 351.69 248.45 353.61 251.5 354C259.127 354.892 266.856 354.176 274.19 351.9C274.19 351.9 234.94 339.43 272.73 309.11H262.63L259.23 307.83C253.71 317.66 244.97 335.15 244.23 348.95Z" fill="#67647E"/>
<path opacity="0.1" d="M296.67 208.21C303.329 211.231 310.758 212.12 317.942 210.756C325.126 209.392 331.712 205.842 336.8 200.59C336.62 200.02 336.45 199.47 336.29 198.92C335.451 195.984 334.925 192.967 334.72 189.92C334.72 189.92 290.72 174.33 299.26 189.92C303.47 197.6 300.64 203.84 296.67 208.21Z" fill="black"/>
<path d="M275.88 174.36V174.71C275.88 175.86 275.96 177 276.08 178.12C276.2 179.24 276.36 180.26 276.56 181.31C278.089 188.95 282.092 195.875 287.949 201.013C293.807 206.151 301.193 209.218 308.968 209.739C316.742 210.26 324.472 208.207 330.963 203.897C337.454 199.586 342.345 193.258 344.88 185.89C345.12 185.2 345.33 184.51 345.52 183.81C346.375 180.733 346.806 177.554 346.8 174.36C346.8 173.55 346.8 172.73 346.71 171.93C346.057 162.775 341.88 154.23 335.057 148.092C328.234 141.953 319.297 138.699 310.124 139.014C300.951 139.329 292.258 143.188 285.872 149.779C279.486 156.371 275.904 165.182 275.88 174.36V174.36Z" fill="#EFB7B9"/>
<path opacity="0.1" d="M275.88 174.71C276.074 175.836 276.141 176.979 276.08 178.12C276.068 178.738 276.102 179.357 276.18 179.97C276.247 180.432 276.374 180.882 276.56 181.31C277.99 184.67 282.67 186.85 285.76 184.68C286.95 183.705 287.895 182.465 288.52 181.06C291.8 174.97 296.35 167.97 303.52 167.85C306.58 167.79 309.45 169.08 312.41 169.85C315.37 170.62 318.87 170.69 321.07 168.68C322.77 167.13 323.57 164.49 325.84 163.95C328.11 163.41 330.21 165.49 331.25 167.53C332.29 169.57 333.12 171.97 335.25 173.03C336.19 173.49 337.25 173.63 338.25 174.13C342.49 176.45 340.54 184.58 344.94 185.9C345.078 185.943 345.218 185.976 345.36 186C345.43 185.28 345.51 184.54 345.58 183.82C345.98 179.86 346.377 175.9 346.77 171.94C346.117 162.785 341.94 154.24 335.117 148.102C328.294 141.963 319.357 138.709 310.184 139.024C301.011 139.339 292.318 143.198 285.932 149.789C279.546 156.381 275.964 165.192 275.94 174.37L275.88 174.71Z" fill="black"/>
<path d="M338.87 121.43C343.04 123.2 347.38 125.92 348.31 130.17C348.72 132.04 348.41 133.98 348.51 135.88C348.71 139.72 350.51 143.28 351.7 146.96C352.89 150.64 353.29 154.96 350.95 158.06C350.22 159.06 349.25 159.85 348.59 160.87C347.729 162.478 347.263 164.267 347.23 166.09L345.3 185.27C340.36 184.34 342.56 175.77 338.18 173.39C337.27 172.89 336.18 172.75 335.23 172.28C333.12 171.28 332.3 168.83 331.23 166.79C330.16 164.75 328.13 162.66 325.82 163.21C323.51 163.76 322.75 166.4 321.06 167.94C318.85 169.94 315.34 169.86 312.39 169.11C309.44 168.36 306.56 167.11 303.51 167.11C296.33 167.23 291.77 174.23 288.51 180.32C287.882 181.729 286.934 182.973 285.74 183.95C282.26 186.39 276.74 183.31 276.17 179.23C275.83 176.94 276.55 174.39 275.23 172.45C273.91 170.51 271.05 170.1 268.82 169.06C263.12 166.44 261.36 159.33 262.3 153.37C262.99 149.07 264.7 144.65 263.3 140.51C262.81 139.08 261.98 137.78 261.53 136.35C260.28 132.35 262.32 127.91 265.53 125.06C268.74 122.21 272.95 120.64 277.09 119.26C287.72 115.69 298.88 112.26 310.19 111.52C315.14 111.2 321.63 109.65 325.56 112.74C330.23 116.32 333.11 118.99 338.87 121.43Z" fill="#585268"/>
<path opacity="0.1" d="M329.6 234.49C330.677 234.49 331.55 233.617 331.55 232.54C331.55 231.463 330.677 230.59 329.6 230.59C328.523 230.59 327.65 231.463 327.65 232.54C327.65 233.617 328.523 234.49 329.6 234.49Z" fill="black"/>
<path d="M329.6 233.71C330.677 233.71 331.55 232.837 331.55 231.76C331.55 230.683 330.677 229.81 329.6 229.81C328.523 229.81 327.65 230.683 327.65 231.76C327.65 232.837 328.523 233.71 329.6 233.71Z" fill="#444053"/>
<path opacity="0.1" d="M342.07 356.85C343.147 356.85 344.02 355.977 344.02 354.9C344.02 353.823 343.147 352.95 342.07 352.95C340.993 352.95 340.12 353.823 340.12 354.9C340.12 355.977 340.993 356.85 342.07 356.85Z" fill="black"/>
<path d="M342.07 356.07C343.147 356.07 344.02 355.197 344.02 354.12C344.02 353.043 343.147 352.17 342.07 352.17C340.993 352.17 340.12 353.043 340.12 354.12C340.12 355.197 340.993 356.07 342.07 356.07Z" fill="#444053"/>
<path opacity="0.1" d="M335.45 389.19C336.527 389.19 337.4 388.317 337.4 387.24C337.4 386.163 336.527 385.29 335.45 385.29C334.373 385.29 333.5 386.163 333.5 387.24C333.5 388.317 334.373 389.19 335.45 389.19Z" fill="black"/>
<path d="M335.45 388.41C336.527 388.41 337.4 387.537 337.4 386.46C337.4 385.383 336.527 384.51 335.45 384.51C334.373 384.51 333.5 385.383 333.5 386.46C333.5 387.537 334.373 388.41 335.45 388.41Z" fill="#444053"/>
<path opacity="0.1" d="M268.48 263.33C268.48 263.33 264.19 292.43 268.48 297.5C272.77 302.57 268.48 263.33 268.48 263.33Z" fill="black"/>
<path opacity="0.1" d="M395.9 317.37C395.9 317.37 404.08 335 395.9 351.9C387.72 368.8 382.65 375.67 385.38 386.46C388.11 397.25 395.9 317.37 395.9 317.37Z" fill="black"/>
<path opacity="0.1" d="M8.95999 640.79C21.04 648.97 39.36 645.07 39.36 645.07C39.36 645.07 67.02 631.83 75.21 631.83C83.4 631.83 103.23 623.64 103.23 623.64L102.56 618.13C94.49 619.68 76.13 623.39 74.01 625.2C71.28 627.54 37.77 638.84 37.77 638.84C37.77 638.84 14.95 635.99 8.59999 626.61C4.42999 630.95 2.63999 636.51 8.95999 640.79Z" fill="black"/>
<g opacity="0.1">
<path opacity="0.1" d="M348.51 132.76C348.51 132.34 348.51 131.92 348.51 131.49C348.51 131.98 348.51 132.49 348.51 132.95C348.53 132.89 348.51 132.83 348.51 132.76Z" fill="black"/>
<path opacity="0.1" d="M268.83 165.91C271.06 166.91 273.83 167.31 275.24 169.29C276.65 171.27 275.84 173.78 276.18 176.07C276.77 180.15 282.27 183.24 285.75 180.79C286.944 179.813 287.892 178.57 288.52 177.16C291.79 171.07 296.35 164.07 303.52 163.95C306.58 163.9 309.45 165.19 312.41 165.95C315.37 166.71 318.87 166.79 321.08 164.78C322.77 163.24 323.57 160.59 325.84 160.05C328.11 159.51 330.2 161.59 331.25 163.63C332.3 165.67 333.12 168.07 335.25 169.13C336.19 169.59 337.25 169.73 338.2 170.23C342.58 172.62 340.38 181.23 345.32 182.11C345.987 175.71 346.63 169.317 347.25 162.93C347.291 161.127 347.757 159.359 348.61 157.77C349.27 156.77 350.24 155.93 350.97 154.95C351.854 153.74 352.405 152.319 352.57 150.83C352.984 153.359 352.411 155.951 350.97 158.07C350.24 159.07 349.27 159.86 348.61 160.88C347.744 162.483 347.271 164.269 347.23 166.09C346.563 172.483 345.92 178.877 345.3 185.27C340.36 184.34 342.56 175.77 338.18 173.39C337.27 172.89 336.18 172.75 335.23 172.28C333.12 171.28 332.3 168.83 331.23 166.79C330.16 164.75 328.13 162.66 325.82 163.21C323.51 163.76 322.75 166.4 321.06 167.94C318.85 169.94 315.34 169.86 312.39 169.11C309.44 168.36 306.56 167.11 303.5 167.11C296.33 167.23 291.77 174.23 288.5 180.32C287.872 181.73 286.924 182.973 285.73 183.95C282.25 186.39 276.73 183.31 276.16 179.23C275.82 176.94 276.54 174.39 275.22 172.45C273.9 170.51 271.04 170.1 268.81 169.06C263.6 166.66 261.68 160.51 262.12 154.92C262.52 159.49 264.58 163.95 268.83 165.91Z" fill="black"/>
<path opacity="0.1" d="M261.54 133.19C261.99 134.62 262.82 135.93 263.31 137.35C263.826 139.008 263.976 140.758 263.75 142.48C263.672 141.8 263.525 141.13 263.31 140.48C262.82 139.05 261.99 137.75 261.54 136.32C261.145 135 261.066 133.606 261.31 132.25C261.368 132.568 261.445 132.881 261.54 133.19Z" fill="black"/>
</g>
<path d="M481.37 454.14L401.05 444.09C400.484 444.02 399.948 443.793 399.504 443.436C399.059 443.078 398.723 442.604 398.533 442.066C398.343 441.528 398.307 440.948 398.428 440.39C398.549 439.833 398.824 439.32 399.22 438.91L432.91 403.91C433.237 403.57 433.638 403.309 434.082 403.15C434.526 402.99 435.001 402.936 435.47 402.99L496.88 409.87C497.347 409.922 497.796 410.081 498.191 410.335C498.587 410.588 498.92 410.928 499.163 411.33C499.407 411.732 499.555 412.184 499.596 412.653C499.637 413.121 499.57 413.592 499.4 414.03L484.62 452.22C484.368 452.855 483.912 453.389 483.324 453.736C482.735 454.084 482.048 454.226 481.37 454.14Z" fill="#746D83"/>
<path opacity="0.1" d="M481.37 454.14L401.05 444.09C400.484 444.02 399.948 443.793 399.504 443.436C399.059 443.078 398.723 442.604 398.533 442.066C398.343 441.528 398.307 440.948 398.428 440.39C398.549 439.833 398.824 439.32 399.22 438.91L432.91 403.91C433.237 403.57 433.638 403.309 434.082 403.15C434.526 402.99 435.001 402.936 435.47 402.99L496.88 409.87C497.347 409.922 497.796 410.081 498.191 410.335C498.587 410.588 498.92 410.928 499.163 411.33C499.407 411.732 499.555 412.184 499.596 412.653C499.637 413.121 499.57 413.592 499.4 414.03L484.62 452.22C484.368 452.855 483.912 453.389 483.324 453.736C482.735 454.084 482.048 454.226 481.37 454.14Z" fill="black"/>
<path d="M480.46 453.24L400.15 443.15C399.584 443.078 399.049 442.85 398.605 442.491C398.161 442.132 397.825 441.657 397.635 441.119C397.446 440.581 397.409 440 397.53 439.442C397.651 438.885 397.924 438.371 398.32 437.96L432.01 402.96C432.338 402.62 432.739 402.36 433.182 402.199C433.626 402.038 434.101 401.98 434.57 402.03L495.97 408.91C496.438 408.963 496.888 409.122 497.285 409.375C497.682 409.629 498.016 409.97 498.26 410.373C498.504 410.776 498.653 411.229 498.695 411.699C498.736 412.168 498.67 412.64 498.5 413.08L483.71 451.27C483.465 451.914 483.012 452.457 482.424 452.814C481.835 453.171 481.144 453.321 480.46 453.24V453.24Z" fill="#746D83"/>
<path d="M432.6 416.67L456.72 418.61L491.12 416.37H490.53L458.66 413.29C451.36 410.61 456.42 394.83 456.42 394.83L432.01 396.07L430.06 396.17C421.43 416.37 432.6 416.67 432.6 416.67Z" fill="#D1D9EC"/>
<path opacity="0.1" d="M432.6 416.67L456.72 418.61L491.12 416.37H490.53L455.75 417.61L432.45 415.08C425.83 413.34 429.62 401.86 432.01 396.08L430.06 396.18C421.43 416.37 432.6 416.67 432.6 416.67Z" fill="black"/>
<path d="M390.35 273.24L397.73 379.09L398.73 392.98C398.83 394.513 399.514 395.95 400.641 396.993C401.769 398.037 403.254 398.609 404.79 398.59H407.03L518.13 397.92C518.563 397.915 518.991 397.82 519.386 397.641C519.78 397.463 520.134 397.204 520.423 396.881C520.713 396.559 520.932 396.18 521.068 395.768C521.203 395.357 521.252 394.921 521.21 394.49L520.21 380.59L512.39 287.51C512.268 286.296 511.801 285.143 511.044 284.186C510.288 283.229 509.273 282.509 508.12 282.11L402.23 266.23C398.63 264.98 394.96 265.42 392.67 267.33C391.826 268.048 391.173 268.963 390.768 269.994C390.363 271.025 390.22 272.14 390.35 273.24V273.24Z" fill="#4C4C56"/>
<path d="M397.73 379.09L398.73 392.98C398.83 394.513 399.514 395.95 400.641 396.993C401.769 398.037 403.254 398.609 404.79 398.59H407.03L518.13 397.92C518.563 397.915 518.991 397.82 519.386 397.641C519.78 397.463 520.134 397.204 520.423 396.881C520.713 396.559 520.932 396.18 521.068 395.768C521.203 395.357 521.252 394.921 521.21 394.49L520.21 380.59L397.73 379.09Z" fill="#DFE6F5"/>
<path d="M472.21 393.59C473.033 393.59 473.7 392.256 473.7 390.61C473.7 388.964 473.033 387.63 472.21 387.63C471.387 387.63 470.72 388.964 470.72 390.61C470.72 392.256 471.387 393.59 472.21 393.59Z" fill="white"/>
<path d="M467.89 430.22C467.89 430.22 437.51 418.75 429.32 427.09C429.32 427.09 427.98 429.63 433.49 430.22L455.75 432.01C455.75 432.01 464.91 432.9 467.89 430.22Z" fill="#D1D9EC"/>
<path d="M467.08 427.24C461.08 424.8 443.15 418.49 431.65 425.47C431.65 425.47 444.37 424.06 451.36 428.1C458.35 432.14 467.89 430.22 467.89 430.22L468.03 429.97C468.164 429.732 468.245 429.468 468.269 429.196C468.294 428.923 468.26 428.649 468.17 428.391C468.08 428.133 467.936 427.897 467.749 427.698C467.561 427.5 467.333 427.344 467.08 427.24V427.24Z" fill="#DFE6F5"/>
<path d="M390.35 273.24L398.69 393C398.79 394.533 399.474 395.97 400.601 397.013C401.729 398.057 403.214 398.629 404.75 398.61H406.99C405.455 397.145 404.148 395.46 403.11 393.61C403.11 393.61 394.92 273.27 394.32 270.29C394.057 269.174 393.485 268.156 392.67 267.35C391.829 268.066 391.178 268.977 390.773 270.005C390.368 271.032 390.223 272.143 390.35 273.24V273.24Z" fill="#DFE6F5"/>
<path opacity="0.1" d="M390.35 273.24L398.69 393C398.79 394.533 399.474 395.97 400.601 397.013C401.729 398.057 403.214 398.629 404.75 398.61H406.99C405.455 397.145 404.148 395.46 403.11 393.61C403.11 393.61 394.92 273.27 394.32 270.29C394.057 269.174 393.485 268.156 392.67 267.35C391.829 268.066 391.178 268.977 390.773 270.005C390.368 271.032 390.223 272.143 390.35 273.24V273.24Z" fill="black"/>
<path opacity="0.1" d="M376.02 306.44C385.02 304.44 406.02 298.28 406.02 298.28L409.78 297.52C409.73 284.44 409.08 271.77 408.84 267.52H408.75C408.75 267.52 390.82 273.37 386.54 276.52C382.26 279.67 369 278.85 369 278.85C369 278.85 348.36 279.96 331.23 299.09C314.1 318.22 367.06 308.41 376.02 306.44Z" fill="black"/>
<path d="M463.61 271.67C464.411 272.036 465.106 272.599 465.63 273.307C466.155 274.015 466.491 274.844 466.608 275.717C466.725 276.59 466.618 277.478 466.299 278.299C465.979 279.12 465.456 279.846 464.78 280.41C460.03 284.34 453.1 289.04 446.48 289.7C435.48 290.81 408.88 296.14 406.24 296.7C406.098 296.724 405.958 296.757 405.82 296.8C403.63 297.44 384.47 303.05 376.02 304.9C367.02 306.9 314.02 316.61 331.21 297.52C346.99 279.94 365.74 277.52 368.63 277.29C368.86 277.27 369.09 277.27 369.32 277.29C371.32 277.38 382.64 277.77 386.55 274.94C388.587 273.662 390.744 272.587 392.99 271.73C401.463 268.224 410.301 265.675 419.34 264.13L437.67 260.93C438.714 260.75 439.787 260.89 440.75 261.33L463.61 271.67Z" fill="#EFB7B9"/>
<path d="M425.12 220.73L433.69 219.95C433.69 219.95 443.05 226.95 450.06 226.95C457.07 226.95 461.36 235.95 461.36 235.95C461.36 235.95 473.05 241.41 476.95 242.19C480.85 242.97 487.47 246.86 485.52 248.42C483.57 249.98 485.91 253.49 489.42 256.21C492.93 258.93 498.42 272.97 493.7 274.92C488.98 276.87 476.17 280.76 472.7 282.71C469.23 284.66 464.91 282.71 464.91 282.71C464.91 282.71 444.23 255.8 433.7 260.87C423.17 265.94 408.76 265.93 408.76 265.93L397.46 242.17L425.12 220.73Z" fill="#67647E"/>
</g>
<defs>
<linearGradient id="paint0_linear" x1="249.97" y1="647.8" x2="249.97" y2="108.51" gradientUnits="userSpaceOnUse">
<stop stop-color="#808080" stop-opacity="0.25"/>
<stop offset="0.54" stop-color="#808080" stop-opacity="0.12"/>
<stop offset="1" stop-color="#808080" stop-opacity="0.1"/>
</linearGradient>
<clipPath id="clip0">
<rect width="996.46" height="828.18" fill="white"/>
</clipPath>
</defs>
</svg>
